<?xml version="1.0" encoding="UTF-8" standalone="no"?>
<!-- Created with Inkscape (http://www.inkscape.org/) -->

<svg
   xmlns:dc="http://purl.org/dc/elements/1.1/"
   xmlns:cc="http://creativecommons.org/ns#"
   xmlns:rdf="http://www.w3.org/1999/02/22-rdf-syntax-ns#"
   xmlns:svg="http://www.w3.org/2000/svg"
   xmlns="http://www.w3.org/2000/svg"
   xmlns:xlink="http://www.w3.org/1999/xlink"
   xmlns:sodipodi="http://sodipodi.sourceforge.net/DTD/sodipodi-0.dtd"
   xmlns:inkscape="http://www.inkscape.org/namespaces/inkscape"
   width="110mm"
   height="220mm"
   viewBox="0 0 389.76378 779.52756"
   id="svg2"
   version="1.1"
   inkscape:version="0.48.4 r9939"
   sodipodi:docname="folder3.svg">
  <defs
     id="defs4">
    <linearGradient
       inkscape:collect="always"
       id="linearGradient3901">
      <stop
         style="stop-color:#ffffff;stop-opacity:1;"
         offset="0"
         id="stop3903" />
      <stop
         style="stop-color:#ffffff;stop-opacity:0;"
         offset="1"
         id="stop3905" />
    </linearGradient>
    <linearGradient
       id="linearGradient3806">
      <stop
         style="stop-color:#000000;stop-opacity:0;"
         offset="0"
         id="stop3808" />
      <stop
         style="stop-color:#f470af;stop-opacity:0.6785714;"
         offset="1"
         id="stop3810" />
    </linearGradient>
    <radialGradient
       inkscape:collect="always"
       xlink:href="#linearGradient3806"
       id="radialGradient3812"
       cx="76.771591"
       cy="684.06818"
       fx="76.771591"
       fy="684.06818"
       r="148.94673"
       gradientUnits="userSpaceOnUse" />
    <radialGradient
       inkscape:collect="always"
       xlink:href="#linearGradient3806-7"
       id="radialGradient3812-1"
       cx="76.771591"
       cy="684.06818"
       fx="76.771591"
       fy="684.06818"
       r="148.94673"
       gradientUnits="userSpaceOnUse" />
    <linearGradient
       id="linearGradient3806-7">
      <stop
         style="stop-color:#000000;stop-opacity:0;"
         offset="0"
         id="stop3808-4" />
      <stop
         style="stop-color:#f470af;stop-opacity:0.6785714;"
         offset="1"
         id="stop3810-0" />
    </linearGradient>
    <radialGradient
       r="148.94673"
       fy="684.06818"
       fx="76.771591"
       cy="684.06818"
       cx="76.771591"
       gradientUnits="userSpaceOnUse"
       id="radialGradient3829"
       xlink:href="#linearGradient3806-7"
       inkscape:collect="always" />
    <radialGradient
       inkscape:collect="always"
       xlink:href="#linearGradient3806-8"
       id="radialGradient3812-4"
       cx="76.771591"
       cy="684.06818"
       fx="76.771591"
       fy="684.06818"
       r="148.94673"
       gradientUnits="userSpaceOnUse" />
    <linearGradient
       id="linearGradient3806-8">
      <stop
         style="stop-color:#000000;stop-opacity:0;"
         offset="0"
         id="stop3808-8" />
      <stop
         style="stop-color:#f470af;stop-opacity:0.6785714;"
         offset="1"
         id="stop3810-2" />
    </linearGradient>
    <radialGradient
       r="148.94673"
       fy="684.06818"
       fx="76.771591"
       cy="684.06818"
       cx="76.771591"
       gradientUnits="userSpaceOnUse"
       id="radialGradient3829-4"
       xlink:href="#linearGradient3806-8"
       inkscape:collect="always"
       gradientTransform="matrix(0.99999084,-0.00427964,0.00678197,1.5846933,-4.6386279,-399.64153)" />
    <radialGradient
       r="148.94673"
       fy="684.06818"
       fx="76.771591"
       cy="684.06818"
       cx="76.771591"
       gradientUnits="userSpaceOnUse"
       id="radialGradient3829-4-5"
       xlink:href="#linearGradient3806-8-1"
       inkscape:collect="always"
       gradientTransform="matrix(0.99999084,-0.00427964,0.00678197,1.5846933,-4.6386279,-399.64153)" />
    <linearGradient
       id="linearGradient3806-8-1">
      <stop
         style="stop-color:#000000;stop-opacity:0;"
         offset="0"
         id="stop3808-8-7" />
      <stop
         style="stop-color:#f470af;stop-opacity:0.6785714;"
         offset="1"
         id="stop3810-2-1" />
    </linearGradient>
    <radialGradient
       r="148.94673"
       fy="684.06818"
       fx="76.771591"
       cy="684.06818"
       cx="76.771591"
       gradientTransform="matrix(0.99999084,-0.00427964,0.00678197,1.5846933,-4.6386279,-399.64153)"
       gradientUnits="userSpaceOnUse"
       id="radialGradient3880"
       xlink:href="#linearGradient3806-8-1"
       inkscape:collect="always" />
    <linearGradient
       inkscape:collect="always"
       xlink:href="#linearGradient3901"
       id="linearGradient3907"
       x1="180.81729"
       y1="76.966499"
       x2="182.8376"
       y2="775.99207"
       gradientUnits="userSpaceOnUse" />
  </defs>
  <sodipodi:namedview
     id="base"
     pagecolor="#ffffff"
     bordercolor="#666666"
     borderopacity="1.0"
     inkscape:pageopacity="0.0"
     inkscape:pageshadow="2"
     inkscape:zoom="0.98994949"
     inkscape:cx="311.72643"
     inkscape:cy="397.02869"
     inkscape:document-units="px"
     inkscape:current-layer="layer1"
     showgrid="false"
     inkscape:window-width="1920"
     inkscape:window-height="1028"
     inkscape:window-x="-8"
     inkscape:window-y="-8"
     inkscape:window-maximized="1" />
  <metadata
     id="metadata7">
    <rdf:RDF>
      <cc:Work
         rdf:about="">
        <dc:format>image/svg+xml</dc:format>
        <dc:type
           rdf:resource="http://purl.org/dc/dcmitype/StillImage" />
        <dc:title></dc:title>
      </cc:Work>
    </rdf:RDF>
  </metadata>
  <g
     inkscape:label="Layer 1"
     inkscape:groupmode="layer"
     id="layer1"
     transform="translate(0,-272.83465)">
    <path
       transform="matrix(0.40282687,0,0,0.34915255,57.462683,246.8225)"
       sodipodi:type="arc"
       style="fill:url(#radialGradient3829-4);fill-opacity:1;stroke:none"
       id="path3036-5"
       sodipodi:cx="76.771591"
       sodipodi:cy="684.06818"
       sodipodi:rx="142.93658"
       sodipodi:ry="148.9975"
       d="m 219.70818,684.06818 c 0,82.28904 -63.99489,148.99749 -142.936589,148.99749 -78.9416956,0 -142.936584,-66.70845 -142.936584,-148.99749 0,-82.28905 63.9948884,-148.9975 142.936584,-148.9975 78.941699,0 142.936589,66.70845 142.936589,148.9975 z" />
    <path
       sodipodi:type="arc"
       style="fill:url(#radialGradient3812);fill-opacity:1;stroke:none"
       id="path3036"
       sodipodi:cx="76.771591"
       sodipodi:cy="684.06818"
       sodipodi:rx="143.94673"
       sodipodi:ry="148.9975"
       d="m 220.71832,684.06818 c 0,82.28904 -64.44714,148.99749 -143.946729,148.99749 -79.4995844,0 -143.946731,-66.70845 -143.946731,-148.99749 0,-82.28905 64.4471466,-148.9975 143.946731,-148.9975 79.499589,0 143.946729,66.70845 143.946729,148.9975 z"
       transform="translate(83.842657,210.20519)" />
    <path
       transform="matrix(0.68421052,0,0,0.6440678,228.29446,213.27077)"
       sodipodi:type="arc"
       style="fill:url(#radialGradient3829);fill-opacity:1;stroke:none"
       id="path3036-9"
       sodipodi:cx="76.771591"
       sodipodi:cy="684.06818"
       sodipodi:rx="143.94673"
       sodipodi:ry="148.9975"
       d="m 220.71832,684.06818 c 0,82.28904 -64.44714,148.99749 -143.946729,148.99749 -79.4995844,0 -143.946731,-66.70845 -143.946731,-148.99749 0,-82.28905 64.4471466,-148.9975 143.946731,-148.9975 79.499589,0 143.946729,66.70845 143.946729,148.9975 z" />
    <path
       transform="matrix(0.22261486,0,0,0.21694916,261.20652,231.69769)"
       sodipodi:type="arc"
       style="fill:url(#radialGradient3880);fill-opacity:1;stroke:none"
       id="path3036-5-1"
       sodipodi:cx="76.771591"
       sodipodi:cy="684.06818"
       sodipodi:rx="142.93658"
       sodipodi:ry="148.9975"
       d="m 219.70818,684.06818 c 0,82.28904 -63.99489,148.99749 -142.936589,148.99749 -78.9416956,0 -142.936584,-66.70845 -142.936584,-148.99749 0,-82.28905 63.9948884,-148.9975 142.936584,-148.9975 78.941699,0 142.936589,66.70845 142.936589,148.9975 z" />
    <rect
       style="fill:url(#linearGradient3907);fill-opacity:1;stroke:none"
       id="rect3899"
       width="387.89856"
       height="778.82764"
       x="-6.6207917e-008"
       y="-0.3101792"
       transform="translate(0,272.83465)" />
    <text
       xml:space="preserve"
       style="font-style:normal;font-variant:normal;font-weight:bold;font-stretch:normal;font-size:40px;line-height:125%;font-family:Aharoni;-inkscape-font-specification:'Aharoni Bold';letter-spacing:0px;word-spacing:0px;fill:#000000;fill-opacity:1;stroke:none;stroke-width:1px;stroke-linecap:butt;stroke-linejoin:miter;stroke-opacity:1"
       x="42.442253"
       y="320.00165"
       id="text4138"
       sodipodi:linespacing="125%"><tspan
         sodipodi:role="line"
         id="tspan4140"
         x="42.442253"
         y="320.00165">Haus-Automation</tspan></text>
    <text
       xml:space="preserve"
       style="font-style:normal;font-weight:normal;font-size:40px;line-height:125%;font-family:Sans;letter-spacing:0px;word-spacing:0px;fill:#000000;fill-opacity:1;stroke:none;stroke-width:1px;stroke-linecap:butt;stroke-linejoin:miter;stroke-opacity:1"
       x="142.4315"
       y="312.93057"
       id="text4142"
       sodipodi:linespacing="125%"><tspan
         sodipodi:role="line"
         id="tspan4144"
         x="142.4315"
         y="312.93057" /></text>
    <text
       xml:space="preserve"
       style="font-style:normal;font-weight:normal;font-size:40px;line-height:125%;font-family:Sans;letter-spacing:0px;word-spacing:0px;fill:#000000;fill-opacity:1;stroke:none;stroke-width:1px;stroke-linecap:butt;stroke-linejoin:miter;stroke-opacity:1"
       x="52.527931"
       y="401.82401"
       id="text4164"
       sodipodi:linespacing="125%"><tspan
         sodipodi:role="line"
         id="tspan4166"
         x="52.527931"
         y="401.82401" /></text>
    <text
       xml:space="preserve"
       style="font-style:normal;font-weight:normal;font-size:40px;line-height:125%;font-family:Sans;letter-spacing:0px;word-spacing:0px;fill:#000000;fill-opacity:1;stroke:none;stroke-width:1px;stroke-linecap:butt;stroke-linejoin:miter;stroke-opacity:1"
       x="56.568542"
       y="412.93567"
       id="text4210"
       sodipodi:linespacing="125%"><tspan
         sodipodi:role="line"
         id="tspan4212"
         x="56.568542"
         y="412.93567" /></text>
    <flowRoot
       xml:space="preserve"
       id="flowRoot4214"
       style="font-style:normal;font-weight:normal;font-size:17.5px;line-height:125%;font-family:Sans;letter-spacing:0px;word-spacing:0px;fill:#000000;fill-opacity:1;stroke:none;stroke-width:1px;stroke-linecap:butt;stroke-linejoin:miter;stroke-opacity:1"
       transform="translate(-4,262.83465)"><flowRegion
         id="flowRegion4216"><rect
           id="rect4218"
           width="310.11682"
           height="307.0864"
           x="57.578693"
           y="117.87767"
           style="font-size:17.5px" /></flowRegion><flowPara
         id="flowPara4220"
         style="text-align:justify;text-anchor:start">In diesem Workshop lernen Wir die Ansteuereung von handelsüblichen Haushaltsgeräten mit technischen Hilfmitteln. </flowPara><flowPara
         id="flowPara4222"
         style="text-align:justify;text-anchor:start">Egal ob du Beleuchtung Steuern oder Temperatur online ablesen möchtest, oder ob du nur deinen Bruder abhören willst. </flowPara><flowPara
         id="flowPara4224"
         style="text-align:justify;text-anchor:start">Wir entwickeln Gemeinsam Lösungen um mit Smartphone Tablet oder Computer Geräte im Haus ein und aus zu schalten und damit Grundlagen der Elektronik und Informatik zu erlernen.</flowPara></flowRoot>    <flowRoot
       xml:space="preserve"
       id="flowRoot4226"
       style="fill:black;stroke:none;stroke-opacity:1;stroke-width:1px;stroke-linejoin:miter;stroke-linecap:butt;fill-opacity:1;font-family:Sans;font-style:normal;font-weight:normal;font-size:40px;line-height:125%;letter-spacing:0px;word-spacing:0px"><flowRegion
         id="flowRegion4228"><rect
           id="rect4230"
           width="309.10669"
           height="234.35539"
           x="58.588848"
           y="446.17725" /></flowRegion><flowPara
         id="flowPara4232" /></flowRoot>    <flowRoot
       xml:space="preserve"
       id="flowRoot4234"
       style="font-style:normal;font-weight:normal;font-size:15px;line-height:125%;font-family:Sans;letter-spacing:0px;word-spacing:0px;fill:#000000;fill-opacity:1;stroke:none;stroke-width:1px;stroke-linecap:butt;stroke-linejoin:miter;stroke-opacity:1"
       transform="translate(0.9898475,239.54023)"><flowRegion
         id="flowRegion4236"><rect
           id="rect4238"
           width="300.01532"
           height="220.21326"
           x="55.558392"
           y="471.43106"
           style="font-size:15px" /></flowRegion><flowPara
         id="flowPara4240"
         style="font-style:normal;font-variant:normal;font-weight:bold;font-stretch:normal;font-family:Sans;-inkscape-font-specification:'Sans Bold'">Inhalt:</flowPara><flowPara
         id="flowPara4242">-Umgang mit Arduinos</flowPara><flowPara
         id="flowPara4244">-Was ist ein Relais</flowPara><flowPara
         id="flowPara4266">-Webinterfaces mit Internet bedienen</flowPara><flowPara
         id="flowPara4268">-Verschiedene Verbrauchergruppen kennenlernen</flowPara><flowPara
         id="flowPara4258" /><flowPara
         id="flowPara4260"
         style="font-style:normal;font-variant:normal;font-weight:bold;font-stretch:normal;font-family:Sans;-inkscape-font-specification:'Sans Bold'">BONUS:</flowPara><flowPara
         id="flowPara4262">-RGB-Leds Ansteuern</flowPara><flowPara
         id="flowPara4264">-Eigene Steuerungs App Produzieren</flowPara><flowPara
         id="flowPara4246" /><flowPara
         id="flowPara4248" /><flowPara
         id="flowPara4250" /><flowPara
         id="flowPara4252" /><flowPara
         id="flowPara4254" /><flowPara
         id="flowPara4256" /></flowRoot>    <g
       id="g4195"
       transform="matrix(1.3868765,0,0,1.3868777,-92.820534,-417.75231)"
       style="fill:#000000">
      <path
         inkscape:export-ydpi="1427.8101"
         inkscape:export-xdpi="1427.8101"
         inkscape:connector-curvature="0"
         id="path4149"
         d="m 255.59447,1032.6456 0,-10.5994 10.59936,0 10.59937,0 0,10.5994 0,10.5993 -10.59937,0 -10.59936,0 0,-10.5993 z m 18.17033,0 0,-7.571 -7.57097,0 -7.57096,0 0,7.571 0,7.571 7.57096,0 7.57097,0 0,-7.571 z m -12.11355,0 0,-4.5426 4.54258,0 4.54259,0 0,4.5426 0,4.5426 -4.54259,0 -4.54258,0 0,-4.5426 z m 27.2555,7.571 0,-3.0284 -1.51419,0 -1.51421,0 0,1.5142 0,1.5142 -1.51419,0 -1.51419,0 0,-3.0284 0,-3.0284 1.51419,0 1.51419,0 0,-1.5142 0,-1.5142 -3.02838,0 -3.0284,0 0,-6.0568 0,-6.0568 3.0284,0 3.02838,0 0,-1.5141 0,-1.5142 1.51421,0 1.51419,0 0,1.5142 0,1.5141 1.51418,0 1.51419,0 0,-1.5141 0,-1.5142 1.51419,0 1.51421,0 0,1.5142 0,1.5141 1.51419,0 1.51419,0 0,-1.5141 0,-1.5142 1.51419,0 1.51421,0 0,1.5142 0,1.5141 -1.51421,0 -1.51419,0 0,1.5143 0,1.5141 1.51419,0 1.51421,0 0,1.5142 0,1.5142 -1.51421,0 -1.51419,0 0,-1.5142 0,-1.5142 -1.51419,0 -1.51419,0 0,-1.5141 0,-1.5143 -1.51421,0 -1.51419,0 0,3.0284 0,3.0284 1.51419,0 1.51421,0 0,1.5142 0,1.5142 1.51419,0 1.51419,0 0,3.0284 0,3.0284 1.51419,0 1.51421,0 0,-1.5142 0,-1.5142 1.51418,0 1.51419,0 0,-7.571 0,-7.5709 1.51419,0 1.51421,0 0,-3.0284 0,-3.0284 1.51419,0 1.51419,0 0,1.5142 0,1.5142 1.51421,0 1.51419,0 0,1.5142 0,1.5142 3.02837,0 3.0284,0 0,3.0283 0,3.0284 1.51419,0 1.51419,0 0,1.5142 0,1.5142 4.54259,0 4.54258,0 0,1.5142 0,1.5142 -1.51421,0 -1.51419,0 0,1.5142 0,1.5142 1.51419,0 1.51421,0 0,1.5142 0,1.5142 -1.51421,0 -1.51419,0 0,3.0284 0,3.0284 1.51419,0 1.51421,0 0,1.5142 0,1.5141 -4.54258,0 -4.54259,0 0,-3.0283 0,-3.0284 -1.51419,0 -1.51419,0 0,-3.0284 0,-3.0284 -1.51419,0 -1.51421,0 0,4.5426 0,4.5426 1.51421,0 1.51419,0 0,1.5142 0,1.5141 -3.0284,0 -3.02837,0 0,-1.5141 0,-1.5142 -1.51419,0 -1.51421,0 0,-1.5142 0,-1.5142 -3.02838,0 -3.0284,0 0,3.0284 0,3.0283 -3.02837,0 -3.0284,0 0,-1.5141 0,-1.5142 1.51419,0 1.51421,0 0,-1.5142 0,-1.5142 -1.51421,0 -1.51419,0 0,-1.5142 0,-1.5142 -1.51419,0 -1.51419,0 0,-1.5142 0,-1.5142 -3.0284,0 -3.02837,0 0,1.5142 0,1.5142 1.51418,0 1.51419,0 0,4.5426 0,4.5425 -1.51419,0 -1.51418,0 0,-3.0283 z m 15.14192,-4.5426 0,-1.5142 -1.51419,0 -1.51418,0 0,1.5142 0,1.5142 1.51418,0 1.51419,0 0,-1.5142 z m 6.05678,-3.0284 0,-1.5142 -1.51419,0 -1.51419,0 0,1.5142 0,1.5142 1.51419,0 1.51419,0 0,-1.5142 z m 18.17032,0 0,-1.5142 -1.51418,0 -1.51419,0 0,1.5142 0,1.5142 1.51419,0 1.51418,0 0,-1.5142 z m -39.36902,-6.0568 0,-4.5426 -1.51419,0 -1.51421,0 0,4.5426 0,4.5426 1.51421,0 1.51419,0 0,-4.5426 z m 33.31225,1.5142 0,-3.0284 -1.51419,0 -1.51419,0 0,3.0284 0,3.0284 1.51419,0 1.51419,0 0,-3.0284 z m -6.05678,-4.5426 0,-4.5426 -4.54256,0 -4.54259,0 0,4.5426 0,4.5426 4.54259,0 4.54256,0 0,-4.5426 z m -6.05677,0 0,-1.5142 1.51421,0 1.51419,0 0,1.5142 0,1.5142 -1.51419,0 -1.51421,0 0,-1.5142 z m 15.14195,-3.0283 0,-1.5143 -1.51421,0 -1.51419,0 0,-3.0283 0,-3.0284 -3.02838,0 -3.0284,0 0,-3.0284 0,-3.0284 -4.54256,0 -4.54259,0 0,-1.5142 0,-1.5142 -1.51421,0 -1.51419,0 0,-4.54257 0,-4.54258 -1.51419,0 -1.51418,0 0,-1.51419 0,-1.51419 -1.51421,0 -1.51419,0 0,1.51419 0,1.51419 -6.05678,0 -6.05677,0 0,-1.51419 0,-1.51419 -3.02838,0 -3.0284,0 0,4.54259 0,4.54254 -3.02837,0 -3.0284,0 0,1.5142 0,1.5142 1.51418,0 1.51422,0 0,1.5142 0,1.5142 3.02837,0 3.0284,0 0,3.0284 0,3.0284 -1.51419,0 -1.51421,0 0,1.5142 0,1.5142 -1.51419,0 -1.51418,0 0,1.5142 0,1.5141 -3.0284,0 -3.02838,0 0,-1.5141 0,-1.5142 -1.51419,0 -1.51421,0 0,-3.0284 0,-3.0284 -1.51419,0 -1.51419,0 0,1.5142 0,1.5142 -1.51421,0 -1.51418,0 0,-1.5142 0,-1.5142 -3.02838,0 -3.0284,0 0,-1.5142 0,-1.5142 1.51421,0 1.51419,0 0,-1.5142 0,-1.5142 1.51419,0 1.51419,0 0,1.5142 0,1.5142 3.02839,0 3.02838,0 0,-3.0284 0,-3.0284 -3.02838,0 -3.02839,0 0,-1.51417 0,-1.51418 -1.51419,0 -1.51419,0 0,-1.51419 0,-1.51421 1.51419,0 1.51419,0 0,1.51421 0,1.51419 1.51418,0 1.51421,0 0,-1.51419 0,-1.51421 1.51419,0 1.51419,0 0,-1.51419 0,-1.51419 6.05678,0 6.05677,0 0,-4.54259 0,-4.54258 4.54259,0 4.54259,0 0,-3.02838 0,-3.0284 1.51418,0 1.51419,0 0,-3.02837 0,-3.0284 -1.51419,0 -1.51418,0 0,1.51421 0,1.51419 -1.51419,0 -1.51421,0 0,-3.0284 0,-3.02838 4.54258,0 4.54259,0 0,3.02838 0,3.0284 3.02838,0 3.0284,0 0,-1.51419 0,-1.51421 -1.51421,0 -1.51419,0 0,-1.51419 0,-1.51419 1.51419,0 1.51421,0 0,1.51419 0,1.51419 3.02837,0 3.0284,0 0,1.51421 0,1.51419 -1.51421,0 -1.51419,0 0,1.51418 0,1.51419 1.51419,0 1.51421,0 0,3.0284 0,3.02838 -1.51421,0 -1.51419,0 0,1.51421 0,1.51419 1.51419,0 1.51421,0 0,1.51418 0,1.51419 -1.51421,0 -1.51419,0 0,1.51421 0,1.51419 1.51419,0 1.51421,0 0,1.51419 0,1.51419 1.51419,0 1.51419,0 0,-1.51419 0,-1.51419 3.0284,0 3.02837,0 0,1.51419 0,1.51419 3.0284,0 3.02838,0 0,1.51421 0,1.51419 -3.02838,0 -3.0284,0 0,-1.51419 0,-1.51421 -3.02837,0 -3.0284,0 0,1.51421 0,1.51419 -1.51419,0 -1.51419,0 0,3.02835 0,3.0284 3.02838,0 3.0284,0 0,-1.5142 0,-1.5142 6.05677,0 6.05678,0 0,1.5142 0,1.5142 1.51419,0 1.51418,0 0,-1.5142 0,-1.5142 1.51419,0 1.51421,0 0,3.0284 0,3.0284 -1.51421,0 -1.51419,0 0,1.5142 0,1.5142 -3.02837,0 -3.0284,0 0,1.5142 0,1.5142 1.51419,0 1.51421,0 0,1.5142 0,1.5142 1.51419,0 1.51418,0 0,-1.5142 0,-1.5142 1.51419,0 1.51421,0 0,3.0284 0,3.0283 -1.51421,0 -1.51419,0 0,1.5143 0,1.5141 -1.51418,0 -1.51419,0 0,-1.5141 z m -48.4542,-6.0568 0,-1.5142 1.51418,0 1.51419,0 0,-1.5142 0,-1.5142 -1.51419,0 -1.51418,0 0,-1.5142 0,-1.5142 -1.51422,0 -1.51418,0 0,-1.5142 0,-1.5142 -1.51419,0 -1.51419,0 0,1.5142 0,1.5142 -1.51419,0 -1.51421,0 0,1.5142 0,1.5142 1.51421,0 1.51419,0 0,3.0284 0,3.0284 3.02838,0 3.0284,0 0,-1.5142 z m -3.0284,-3.0284 0,-1.5142 1.51418,0 1.51422,0 0,1.5142 0,1.5142 -1.51422,0 -1.51418,0 0,-1.5142 z m 48.4542,-6.0568 0,-1.5142 -3.02838,0 -3.0284,0 0,1.5142 0,1.5142 3.0284,0 3.02838,0 0,-1.5142 z m -48.4542,-6.05677 0,-1.51418 1.51418,0 1.51422,0 0,-1.51419 0,-1.51421 -3.0284,0 -3.02838,0 0,3.0284 0,3.02835 1.51419,0 1.51419,0 0,-1.51417 z m 24.2271,-10.59936 0,-3.02837 1.51419,0 1.51421,0 0,1.51418 0,1.51419 1.51418,0 1.51419,0 0,-1.51419 0,-1.51418 -1.51419,0 -1.51418,0 0,-1.51419 0,-1.51421 1.51418,0 1.51419,0 0,-1.51419 0,-1.51419 -1.51419,0 -1.51418,0 0,-1.51419 0,-1.51421 -1.51421,0 -1.51419,0 0,1.51421 0,1.51419 -1.51419,0 -1.51419,0 0,1.51419 0,1.51419 -3.0284,0 -3.02837,0 0,3.0284 0,3.02837 -1.51419,0 -1.51421,0 0,-1.51419 0,-1.51418 -1.51419,0 -1.51419,0 0,1.51418 0,1.51419 1.51419,0 1.51419,0 0,1.51421 0,1.51419 6.05677,0 6.05678,0 0,-3.0284 z m -6.05678,-1.51419 0,-1.51418 1.51419,0 1.51421,0 0,-1.51419 0,-1.51421 1.51419,0 1.51419,0 0,-1.51419 0,-1.51419 1.51419,0 1.51421,0 0,1.51419 0,1.51419 -1.51421,0 -1.51419,0 0,1.51421 0,1.51419 -1.51419,0 -1.51419,0 0,1.51418 0,1.51419 -1.51421,0 -1.51419,0 0,-1.51419 z m -36.34065,30.28392 0,-1.5142 3.0284,0 3.02838,0 0,1.5142 0,1.5141 -3.02838,0 -3.0284,0 0,-1.5141 z m 69.65293,-22.71295 0,-3.02838 1.51419,0 1.51418,0 0,3.02838 0,3.0284 -1.51418,0 -1.51419,0 0,-3.0284 z m -69.65293,-16.65612 0,-10.59936 10.59936,0 10.59937,0 0,10.59936 0,10.59934 -10.59937,0 -10.59936,0 0,-10.59934 z m 18.17033,0 0,-7.57098 -7.57097,0 -7.57096,0 0,7.57098 0,7.57097 7.57096,0 7.57097,0 0,-7.57097 z m -12.11355,0 0,-4.54258 4.54258,0 4.54259,0 0,4.54258 0,4.54257 -4.54259,0 -4.54258,0 0,-4.54257 z m 48.4542,0 0,-10.59936 10.59936,0 10.59936,0 0,10.59936 0,10.59934 -10.59936,0 -10.59936,0 0,-10.59934 z m 18.17032,0 0,-7.57098 -7.57096,0 -7.57096,0 0,7.57098 0,7.57097 7.57096,0 7.57096,0 0,-7.57097 z m -12.11355,0 0,-4.54258 4.54259,0 4.54259,0 0,4.54258 0,4.54257 -4.54259,0 -4.54259,0 0,-4.54257 z m -33.31225,0 0,-1.51421 1.51419,0 1.51419,0 0,1.51421 0,1.51419 -1.51419,0 -1.51419,0 0,-1.51419 z m -3.0284,-6.05677 0,-1.51421 1.51421,0 1.51419,0 0,1.51421 0,1.51419 -1.51419,0 -1.51421,0 0,-1.51419 z"
         style="fill:#000000" />
      <path
         inkscape:connector-curvature="0"
         id="path4162"
         d="m 285.67859,1006.5002 0,-7.7707 0.55507,0 0.55504,0 0,-0.55507 0,-0.55504 2.77525,0 2.77528,0 0,-0.55504 0,-0.55506 3.88536,0 3.88535,0 0,0.55506 0,0.55504 0.55505,0 0.55506,0 0,3.88541 0,3.8853 -0.55506,0 -0.55505,0 0,0.5551 0,0.555 -1.1101,0 -1.11011,0 0,2.7753 0,2.7752 -0.55506,0 -0.55504,0 0,0.5551 0,0.5551 -0.55504,0 -0.55507,0 0,0.555 0,0.555 -4.99546,0 -4.99547,0 0,-7.7707 z m 8.88083,6.1056 0,-0.5551 0.55506,0 0.55504,0 0,-0.555 0,-0.5551 0.55507,0 0.55504,0 0,-2.7752 0,-2.7753 1.1101,0 1.11011,0 0,-0.555 0,-0.5551 0.55504,0 0.55506,0 0,-2.7752 0,-2.7753 -0.55506,0 -0.55504,0 0,-0.55507 0,-0.55504 -2.77525,0 -2.77528,0 0,0.55504 0,0.55507 -2.77525,0 -2.77526,0 0,0.55504 0,0.55506 -0.55506,0 -0.55504,0 0,6.6606 0,6.6607 3.88536,0 3.88536,0 0,-0.5551 z m -6.66062,-6.6606 0,-6.1056 2.22022,0 2.22021,0 0,2.2202 0,2.2202 1.11008,0 1.11011,0 0,-0.555 0,-0.5551 0.55506,0 0.55504,0 0,-0.555 0,-0.5551 -0.55504,0 -0.55506,0 0,-0.555 0,-0.5551 0.55506,0 0.55504,0 0,-0.5551 0,-0.555 -0.55504,0 -0.55506,0 0,-0.55506 0,-0.55504 1.66517,0 1.66514,0 0,0.55504 0,0.55506 0.55504,0 0.55507,0 0,1.6652 0,1.6651 -0.55507,0 -0.55504,0 0,0.5551 0,0.555 -1.66514,0 -1.66517,0 0,0.5551 0,0.555 0.55506,0 0.55504,0 0,2.7753 0,2.7752 -0.55504,0 -0.55506,0 0,0.5551 0,0.555 -3.3303,0 -3.33032,0 0,-6.1055 z m 4.44043,3.3303 0,-0.5551 0.55504,0 0.55504,0 0,-0.555 0,-0.5551 -0.55504,0 -0.55504,0 0,-0.555 0,-0.5551 -0.55507,0 -0.55504,0 0,1.6652 0,1.6651 0.55504,0 0.55507,0 0,-0.555 z"
         style="fill:#000000" />
    </g>
  </g>
</svg>
